<svg xmlns="http://www.w3.org/2000/svg" viewBox="0 0 1105.5 385">
<path d="M65.1 251.2 92 127.8h34.3l26.6 123.4h-28.8l-3.6-23.7H97.8l-3.6 23.7zm35.7-45.9h16.6l-8.3-53.8zm127 45.9h-63.5V127.8h28.8v98.5h34.7zm76.2 0h-63.5V127.8h28.8v98.5H304zm12.8 0V127.8h67.1v24h-38.5v22.7h35.5v24.8h-35.5v26.9h38.5v25.1h-67.1zm85 0V127.8h30l24 76.1c-1-12.8-1.7-23.9-2.1-33.2-.5-9.3-.7-17.1-.7-23.6v-19.4h25.7v123.4h-30.1l-24.1-78.4q1.65 15.3 2.4 29.7c.6 9.6.8 18.9.8 27.9v20.8h-25.9z" fill="#000"/>
<path d="m564.8 251.2-4.6-6.3c-4.2 3.1-8.6 5.4-13.2 7-4.6 1.5-9.4 2.3-14.5 2.3-10.9 0-19.6-3.4-26.3-10.2s-10-15.6-10-26.4c0-7.9 1.8-14.9 5.3-21.1s9.1-12.3 16.9-18.4c-3-4.5-5.3-8.8-6.8-13.1-1.5-4.2-2.2-8.3-2.2-12.3 0-8.1 2.9-14.8 8.8-20.1 5.8-5.3 13.3-7.9 22.4-7.9s16.5 2.4 21.9 7.2c5.5 4.8 8.3 11.2 8.3 19.2 0 6.4-1.6 12.1-4.9 17.1-3.3 5.1-8.4 9.8-15.3 14l12.2 19.7c1.1-2.7 2-5.4 2.7-8.2q1.05-4.05 1.2-8.1h21.5c-.3 6.6-1.4 13.1-3.3 19.6-1.9 6.4-4.6 12.7-8.2 18.8l17.1 27.1h-29zm-16.7-25.1-18-28.6c-2.8 2.8-4.9 5.6-6.3 8.5-1.4 2.8-2 5.8-2 8.9 0 4.8 1.4 8.8 4.1 11.9 2.7 3 6.3 4.6 10.7 4.6 1.7 0 3.4-.4 5.3-1.3 1.8-.9 3.9-2.2 6.2-4m-10-61.3q4.65-3.15 6.9-6.6c2.25-3.45 2.3-4.8 2.3-7.3 0-2.3-.7-4.1-2.2-5.5s-3.3-2.1-5.7-2.1c-2.2 0-4 .7-5.4 2-1.3 1.4-2 3.2-2 5.4s.4 4.4 1.4 6.5c.9 2.2 2.5 4.7 4.7 7.6" fill="#cb142a"/>
<path d="M607.5 251.2V127.8h28.8v46.6h23.2v-46.6h28.2v123.4h-28.2V200h-23.2v51.2zm100.3 0V127.8h67.1v24h-38.5v22.7h35.5v24.8h-35.5v26.9h38.5v25.1h-67.1zm76.1 0 26.9-123.4h34.3l26.6 123.4h-28.8l-3.6-23.7h-22.7l-3.6 23.7zm35.6-45.9h16.6l-8.3-53.8zm72.7 45.9v-99.4h-23.1v-24h76.3v24h-24.3v99.4zm65 0V127.8H986v46.6h23.2v-46.6h28.2v123.4h-28.2V200H986v51.2z" fill="#000"/>
</svg>
