<?xml version="1.0" encoding="UTF-8"?>
<!-- Creator: CorelDRAW -->
<svg xmlns="http://www.w3.org/2000/svg" xmlns:xlink="http://www.w3.org/1999/xlink" xmlns:xodm="http://www.corel.com/coreldraw/odm/2003" xml:space="preserve" width="177.778mm" height="37.1842mm" version="1.1" style="shape-rendering:geometricPrecision; text-rendering:geometricPrecision; image-rendering:optimizeQuality; fill-rule:evenodd; clip-rule:evenodd" viewBox="0 0 4964.11 1038.3">
 <defs>
  <style type="text/css">
   <![CDATA[
    .fil1 {fill:black}
    .fil0 {fill:black;fill-rule:nonzero}
    .fil2 {fill:url(#id0)}
   ]]>
  </style>
  <linearGradient id="id0" gradientUnits="userSpaceOnUse" x1="1852.16" y1="815.99" x2="1852.16" y2="-46.6">
   <stop offset="0" style="stop-opacity:1; stop-color:#62C9D8"></stop>
   <stop offset="1" style="stop-opacity:1; stop-color:#2C3896"></stop>
  </linearGradient>
 </defs>
 <g id="Layer_x0020_1">
  <metadata id="CorelCorpID_0Corel-Layer"></metadata>
  <path class="fil0" d="M2578.69 18.33l47.28 0c0.09,-0 0.18,-0 0.28,-0 12.61,0 24.63,5.38 33.04,14.77 8.77,8.59 13.76,20.31 13.89,32.58l0 432.13 -41.52 0c-14.49,-0.39 -28.46,-5.6 -39.67,-14.78 -30.98,14.57 -64.9,22.16 -99.16,22.16 -0.14,0 -0.28,0 -0.43,0 -0.06,-0 -0.19,-0 -0.24,-0 -23.99,0 -47.87,-4.02 -70.53,-11.81 -21.92,-6.91 -41.32,-20.24 -55.64,-38.21 -26.94,-34.47 -40.39,-81.26 -40.34,-140.36 0,-58.46 13.45,-105.25 40.34,-140.37 25.57,-34.11 65.76,-54.22 108.41,-54.22 20.71,0 41.15,4.76 59.73,13.88 17.95,10.67 33.16,25.47 44.33,43.08l0 -158.85 0 0 0.22 0zm-158.4 291.83c0,37.13 6.97,65.41 20.91,84.81 12.9,18.33 33.95,29.26 56.37,29.26 1.13,0 2.27,-0.03 3.39,-0.08 0.9,0.03 1.83,0.06 2.74,0.06 22.22,0 43.03,-10.95 55.62,-29.24 12.91,-19.45 19.38,-47.72 19.43,-84.81 0,-33.35 -6.95,-59.74 -20.84,-79.2 -13.76,-17.57 -34.85,-27.83 -57.16,-27.83 -0.87,0 -1.75,0.02 -2.61,0.04 -0.6,-0.01 -1.23,-0.02 -1.83,-0.02 -22.05,0 -42.69,10.95 -55.05,29.21 -13.99,18.52 -20.98,44.45 -20.98,77.8z"></path>
  <path class="fil0" d="M3237.47 496.85l-137.56 -478 101.36 -0 82.08 337.63 69.52 -337.63 105.58 0 68.19 337.63 73.88 -301.43c5.54,-24.08 21.72,-36.2 48.61,-36.2l61.17 0 -136.75 478 -101.14 0 -66.49 -332.46 -66.49 332.46 -101.95 0z"></path>
  <path class="fil0" d="M3721.9 464.93c-20.21,-17.9 -34.72,-41.39 -41.74,-67.45 -8.23,-28.28 -12.49,-57.75 -12.49,-87.25 0,-0.3 0,-0.65 0,-0.95 0,-25.37 3.56,-50.71 10.43,-75.09 5.85,-23.03 17.04,-44.47 32.56,-62.48 23.7,-27.57 56.97,-45.24 93.09,-49.36 10.98,-1.71 22.18,-2.6 33.32,-2.6 23.67,0 47.24,3.92 69.6,11.61 34.29,13.15 62.19,39.09 77.79,72.34 15.53,31.51 23.63,66.31 23.63,101.47 0,1.82 -0.03,3.7 -0.06,5.5 0.02,1.87 0.05,3.86 0.05,5.75 0,23.84 -3.27,47.64 -9.68,70.58 -5.51,19.23 -13.98,37.62 -25.03,54.3 -20.05,28.99 -50.39,49.34 -84.82,56.87 -16.39,4.52 -33.42,6.82 -50.45,6.82 -14.08,0 -28.16,-1.58 -41.89,-4.67 -27.37,-5.24 -53.01,-17.46 -74.32,-35.46l0 0 0 0.08zm66.49 -244.62c-19.45,21.33 -28.22,53.07 -26.3,95.23 1.77,42.11 9.75,71.52 23.57,88.21 7.74,8.89 17.88,15.41 29.19,18.76 7.43,2.78 15.31,4.21 23.25,4.21 6.45,0 12.9,-0.94 19.08,-2.79 16.08,-5.53 29.68,-16.66 38.27,-31.33 11.01,-16.62 17.07,-43.52 18.03,-80.53 0,-33.44 -5.34,-58.46 -16.03,-75.06 -8.21,-14.63 -21.29,-25.95 -36.94,-31.99 -7.08,-2.42 -14.53,-3.67 -22.02,-3.67 -6.68,0 -13.34,0.99 -19.73,2.93 -11.16,2.94 -21.52,8.44 -30.22,16.04l-0.15 -0z"></path>
  <path class="fil0" d="M2862.39 464.93c-20.21,-17.9 -34.72,-41.39 -41.74,-67.45 -8.23,-28.28 -12.49,-57.75 -12.49,-87.25 0,-0.3 0,-0.65 0,-0.95 0,-25.37 3.56,-50.71 10.43,-75.09 5.85,-23.03 17.04,-44.47 32.56,-62.48 23.7,-27.57 56.97,-45.24 93.09,-49.36 10.98,-1.71 22.17,-2.6 33.32,-2.6 23.67,0 47.24,3.92 69.6,11.61 34.29,13.15 62.19,39.09 77.79,72.34 15.49,31.53 23.63,66.31 23.63,101.49 0,1.82 -0.03,3.67 -0.06,5.47 0.03,1.86 0.06,3.88 0.06,5.77 0,23.83 -3.27,47.63 -9.67,70.56 -5.51,19.24 -13.99,37.63 -25.04,54.31 -20.05,28.99 -50.39,49.34 -84.82,56.87 -16.39,4.52 -33.42,6.82 -50.45,6.82 -14.08,0 -28.16,-1.58 -41.89,-4.67 -27.37,-5.24 -53.01,-17.46 -74.32,-35.46l0 0 0 0.08zm66.49 -244.62c-19.46,21.33 -28.22,53.07 -26.3,95.23 1.77,42.11 9.75,71.52 23.57,88.21 7.74,8.89 17.88,15.41 29.19,18.76 7.43,2.78 15.31,4.21 23.25,4.21 6.45,0 12.9,-0.94 19.08,-2.79 16.08,-5.53 29.68,-16.66 38.27,-31.33 11.01,-16.62 17.07,-43.52 18.03,-80.53 0,-33.44 -5.34,-58.46 -16.03,-75.06 -8.21,-14.63 -21.29,-25.95 -36.94,-31.99 -7.08,-2.42 -14.53,-3.67 -22.02,-3.67 -6.68,0 -13.34,0.99 -19.73,2.93 -11.16,2.94 -21.52,8.44 -30.22,16.04l-0.15 -0z"></path>
  <path class="fil0" d="M1749.32 20.25l77.94 0 173.62 478 -104.39 0 -31.99 -98.63 -26.45 -80.68 -66.49 -202.87 -66.49 202.87 -26.3 80.68 -30.59 98.63 -104.46 0 158.47 -446.01c6.29,-19.14 24.16,-32.08 44.3,-32.08 0.94,0 1.91,0.03 2.85,0.09l-0.01 0z"></path>
  <path class="fil0" d="M2693.72 128.41l50.02 0c26.04,0.08 47.13,21.17 47.21,47.2l0 322.41 -97.22 0.01 0 -369.62z"></path>
  <path class="fil0" d="M2304.3 128.41l0 369.4 -42.11 0c-12.31,-0.51 -24.33,-4.16 -34.87,-10.57 -27.28,11.83 -56.76,17.95 -86.5,17.95 -0.16,0 -0.37,0 -0.53,0 -38.6,-1.47 -76.28,-12.96 -109.13,-33.31 -32.84,-20.39 -49.29,-62.58 -49.34,-126.56l0 -216.91 97.23 0 0 236.42c0,22.17 6.5,38.42 19.43,48.61 12.36,9.89 27.76,15.29 43.61,15.29 0.24,0 0.48,0 0.71,0 0.19,-0 0.4,-0 0.58,-0 16.16,0 31.88,-5.39 44.63,-15.3 13.22,-10.05 19.95,-25.93 20.17,-47.58l0 -190.01 0 0c-0,-0.26 -0.01,-0.54 -0.01,-0.8 0,-12.13 4.73,-23.8 13.16,-32.52 8.51,-8.89 20.29,-13.92 32.6,-13.92 0.51,0 1.03,0.01 1.53,0.03l48.61 0 0.22 -0.22z"></path>
  <path class="fil0" d="M4354.9 128.41l0 0 0 136.16 118.21 -136.16 116.66 0 -128.62 147.76 130.03 222.16 -116.73 0 -68.04 -125.08c-3.82,-7.07 -8.31,-13.86 -13.31,-20.17l-38.2 43.59 0 101.73 -97.22 0 0 -478 50.02 0c0.19,0 0.39,-0.01 0.58,-0.01 12.34,0 24.17,5.02 32.74,13.89 8.8,8.31 13.82,19.87 13.89,31.99l0 62.14z"></path>
  <path class="fil0" d="M4031.61 498.25l0 -179.31c-0.07,-2.19 -0.1,-4.45 -0.1,-6.65 0,-28.86 5.49,-57.52 16.14,-84.31 9.48,-22.99 24.53,-43.31 43.73,-59.1 18.28,-14.23 39.33,-24.68 61.75,-30.59 29.99,-8.27 45.07,-8.5 86.96,-8.27l0 97.23 -31.98 0.01c-26.89,0 -46.82,6.48 -59.77,19.43 -12.95,12.95 -19.43,33.34 -19.43,61.17l0 190.32 -97.3 0 0 0.08z"></path>
  <path class="fil0" d="M1276.57 535.78l155.15 0 0 40.71 -51.71 0 0 124.19 -50.98 0 0 -124.12 -51.71 0 0 -40.71 0 0 -0.74 -0.08zm166.3 0l136.53 0 0 35.24 -85.48 0 0 26.23 79.27 0 0 33.54 -79.27 0 0 32.51 87.99 -0 0 37.38 -139.04 0 0 -164.9 0 0zm264.71 97.52l44.33 13.52c-2.45,11.33 -7.3,22.06 -14.18,31.4 -6.18,8.24 -14.35,14.8 -23.72,19.06 -10.61,4.28 -21.97,6.48 -33.42,6.48 -1.02,0 -2.06,-0.02 -3.08,-0.06 -1.28,0.03 -2.63,0.07 -3.93,0.07 -13.72,0 -27.33,-2.67 -40.02,-7.84 -12.35,-6.06 -22.65,-15.66 -29.56,-27.55 -8.12,-14.16 -12.41,-30.24 -12.41,-46.57 0,-1.27 0.03,-2.57 0.08,-3.83 -0,-27.28 7.26,-48.26 21.79,-62.94 14.53,-14.68 35.07,-22.06 61.61,-22.17 1.56,-0.09 3.13,-0.14 4.69,-0.14 15.65,0 31.02,4.41 44.29,12.69 12.81,9.67 22.13,23.28 26.52,38.72l-44.99 10.05c-1.06,-3.93 -2.73,-7.67 -4.95,-11.08 -2.71,-3.78 -6.29,-6.88 -10.42,-9.02 -4.34,-2.08 -9.09,-3.17 -13.91,-3.17 -10.59,0 -20.51,5.23 -26.5,13.96 -4.71,8.66 -7.18,18.36 -7.18,28.22 0,1.43 0.06,2.86 0.16,4.29 0,18.32 2.81,30.81 8.35,37.6 6.19,6.52 14.79,10.22 23.78,10.22 8,0 15.73,-2.93 21.72,-8.22 5.65,-6.86 9.4,-15.1 10.86,-23.87l-0.01 0 0.08 0.15zm58.07 -97.52l50.98 0 0 58.07 55.71 0 0 -57.7 51.2 0 0 164.9 -51.2 0 0 -66.49 -55.71 0 0 66.49 -50.98 0 0 -165.27 0 0zm180.49 0l47.58 0 62.06 91.24 0 -91.24 48.02 0 0 164.9 -48.02 0 -61.76 -90.5 0 90.5 -47.95 0 0 -164.9 0 0 0.08 0zm173.62 82.52c0,-26.89 7.39,-47.85 22.16,-62.87 14.78,-15.02 35.66,-22.41 62.65,-22.16 27.43,0 48.59,7.39 63.46,22.16 14.87,14.78 22.26,35.41 22.16,61.91 0.04,1.27 0.08,2.59 0.08,3.87 0,15.06 -3.36,29.96 -9.82,43.55 -6.31,12.15 -16.09,22.19 -28.08,28.81 -13.14,6.79 -27.73,10.33 -42.53,10.33 -1.09,0 -2.21,-0.02 -3.28,-0.06 -1.18,0.03 -2.43,0.06 -3.63,0.06 -14.63,0 -29.14,-3.05 -42.53,-8.92 -12.43,-6.24 -22.74,-16.05 -29.56,-28.15 -7.5,-13.73 -11.43,-29.14 -11.43,-44.8 0,-1.12 0.02,-2.26 0.06,-3.36l0.01 0 0.3 -0.37zm50.98 0c0,16.65 3.08,28.62 9.23,35.91 6.63,6.88 15.78,10.78 25.34,10.78 9.56,0 18.71,-3.9 25.34,-10.78 5.98,-7.39 9.01,-19.95 9.01,-38.34 0.12,-1.43 0.18,-2.87 0.18,-4.31 0,-10.67 -3.35,-21.08 -9.57,-29.75 -6.1,-6.84 -14.82,-10.75 -23.98,-10.75 -0.5,0 -1.01,0.02 -1.5,0.04 -0.38,-0.01 -0.77,-0.02 -1.16,-0.02 -9.09,0 -17.73,4.01 -23.59,10.96 -6.2,7.24 -9.31,19.26 -9.31,36.06l0 0 0 0.22zm135.79 -82.74l50.98 0 0 124.78 79.49 0 0 40.63 -130.47 0 0 -165.2 0 0 0 -0.22zm131.73 82.52c0,-26.89 7.39,-47.85 22.16,-62.87 14.78,-15.02 35.66,-22.41 62.65,-22.17 27.43,0 48.59,7.39 63.46,22.17 14.87,14.78 22.26,35.41 22.16,61.91 0.04,1.27 0.07,2.59 0.07,3.87 0,15.06 -3.36,29.96 -9.82,43.55 -6.31,12.15 -16.09,22.19 -28.08,28.81 -13.15,6.77 -27.74,10.33 -42.53,10.33 -1.11,0 -2.25,-0.02 -3.35,-0.06 -1.18,0.03 -2.43,0.06 -3.64,0.06 -14.63,0 -29.14,-3.05 -42.53,-8.92 -12.43,-6.24 -22.73,-16.05 -29.56,-28.15 -7.5,-13.73 -11.43,-29.14 -11.43,-44.8 0,-1.12 0.02,-2.26 0.06,-3.36l0.01 0 0.37 -0.37zm50.98 0c0,16.65 3.08,28.62 9.23,35.91 6.63,6.88 15.78,10.78 25.34,10.78 9.56,0 18.71,-3.9 25.34,-10.78 5.98,-7.39 9.01,-19.95 9.01,-38.34 0.12,-1.43 0.18,-2.88 0.18,-4.31 0,-10.67 -3.35,-21.08 -9.57,-29.75 -6.1,-6.84 -14.82,-10.75 -23.98,-10.75 -0.5,0 -1.01,0.02 -1.5,0.04 -0.38,-0.01 -0.77,-0.03 -1.16,-0.03 -9.09,0 -17.73,4.01 -23.59,10.96 -6.2,7.24 -9.3,19.26 -9.3,36.06l0 0 0 0.22zm218.75 22.16l0 -34.28 78.76 0 0 70.33c-12.26,8.82 -25.75,15.93 -39.98,20.98 -12.45,3.68 -25.44,5.57 -38.44,5.57 -0.91,0 -1.88,-0.02 -2.78,-0.03 -1.31,0.05 -2.68,0.08 -4.01,0.08 -15.19,0 -30.2,-3.47 -43.86,-10.12 -12.38,-6.65 -22.41,-16.98 -28.67,-29.55 -6.71,-13.53 -10.21,-28.43 -10.21,-43.52 0,-0.63 0.01,-1.3 0.03,-1.92 -0.02,-0.73 -0.03,-1.48 -0.03,-2.23 0,-15.6 3.86,-30.99 11.19,-44.76 7.42,-13.26 18.86,-23.87 32.64,-30.28 12.87,-5.32 26.66,-8.08 40.59,-8.08 1.51,0 3.05,0.04 4.56,0.1 1.77,-0.07 3.58,-0.12 5.36,-0.12 12.01,0 23.96,1.72 35.48,5.07 8.58,3.13 16.23,8.43 22.17,15.36 6.37,7.69 10.96,16.7 13.45,26.37l-49.13 8.72c-1.74,-5.78 -5.38,-10.81 -10.34,-14.26 -5.12,-3.24 -11.06,-4.98 -17.12,-4.98 -0.45,0 -0.91,0.01 -1.35,0.03 -0.46,-0.02 -0.95,-0.03 -1.42,-0.03 -9.73,0 -18.98,4.25 -25.33,11.63 -6.65,7.83 -9.97,20.02 -9.97,36.94 0,16.92 3.4,30.59 10.12,38.27 6.69,7.34 16.16,11.51 26.08,11.51 0.66,0 1.33,-0.02 1.99,-0.06 0.04,0 0.08,0 0.12,0 5.47,0 10.93,-0.85 16.13,-2.51 6.21,-2.13 12.21,-4.97 17.8,-8.43l0 -15.51 -34.05 0.01 0.22 -0.3zm80.83 -105.13l56.59 0 33.32 55.71 33.32 -55.71 56.22 0 -64.13 96.04 0 69.08 -51.05 0 0 -69.08 -64.2 -96.04 0 0 -0.07 0zm272.32 129.66c-4.54,5.21 -10.11,9.47 -16.33,12.48 -5.85,2.72 -12.24,4.14 -18.7,4.14 -0.12,0 -0.24,0 -0.36,0 -0.54,0.02 -1.1,0.04 -1.65,0.04 -10.85,0 -21.18,-4.67 -28.34,-12.82 -5.77,-6.37 -8.99,-14.67 -9.02,-23.27 0,-0.03 0,-0.06 0,-0.08 0,-7.49 2.62,-14.76 7.39,-20.53 6.07,-6.99 13.65,-12.53 22.16,-16.18 -4.48,-4.38 -8.38,-9.32 -11.6,-14.7 -1.78,-3.59 -2.74,-7.53 -2.81,-11.53 0,-0.01 0,-0.02 0,-0.03 0,-7.39 3.17,-14.44 8.72,-19.33 5.69,-5.28 13.17,-8.23 20.93,-8.23 0.41,0 0.83,0.01 1.24,0.03 0.47,-0.02 0.96,-0.04 1.44,-0.04 7.11,0 13.98,2.65 19.25,7.42 5.09,4.72 7.98,11.36 7.98,18.3 0,0.1 -0,0.22 -0,0.32 0,11.72 -7.75,21.72 -23.27,30l22.17 28.15c2.71,-5.43 4.7,-11.21 5.91,-17.14l15.74 3.33c-2.11,9.38 -5.82,18.36 -10.93,26.52 5.41,7.25 11.93,13.65 19.28,18.92l-10.19 12.04c-7.12,-4.84 -13.51,-10.74 -18.91,-17.44l-0 0.01 -0.07 -0.37zm-30.81 -64.28c4.91,-2.48 9.27,-5.97 12.78,-10.2 1.88,-2.79 2.88,-6.08 2.88,-9.44 0,-0.08 -0,-0.16 -0,-0.23 0.01,-0.18 0.01,-0.37 0.01,-0.55 0,-3.64 -1.44,-7.14 -4,-9.72 -2.54,-2.55 -5.99,-4 -9.59,-4 -0.13,0 -0.26,0 -0.38,0.01 -0.13,0 -0.26,-0 -0.39,-0 -3.66,0 -7.19,1.44 -9.81,4 -2.6,2.44 -4.07,5.85 -4.07,9.41 0,0.09 0,0.18 0,0.27 0.06,2.1 0.56,4.17 1.48,6.06 1.19,2.39 2.68,4.63 4.43,6.65l6.72 7.83 0 0.01 -0.07 -0.07zm21.28 52.31l-27.78 -34.35c-6.37,3.36 -12.02,7.99 -16.55,13.59 -2.65,3.6 -4.15,7.93 -4.29,12.41 0.26,5.7 2.37,11.18 5.99,15.59 3.71,5.08 9.63,8.08 15.92,8.08 0.33,0 0.67,-0.01 1,-0.03 5,-0.13 9.88,-1.62 14.11,-4.28 4.69,-2.67 8.7,-6.43 11.67,-10.94l0 0.01 -0.07 -0.08zm66.49 -117.76l136.53 0 0 35.24 -85.4 -0 0 26.23 79.27 0 0 34.28 -79.27 0 0 32.51 87.99 -0 0 37.38 -139.04 0 0 -164.9 0 0 -0.08 -0.74zm166.75 0l47.58 0 62.06 91.24 0 -90.5 48.02 0 0 164.9 -48.02 0 -61.76 -90.5 0 90.5 -47.95 0 0 -164.9 0 0 0.08 -0.74zm274.46 105.13l0 -34.28 78.68 0 0 70.33c-12.26,8.82 -25.75,15.93 -39.98,20.98 -12.45,3.68 -25.44,5.57 -38.44,5.57 -0.91,0 -1.88,-0.02 -2.78,-0.03 -1.31,0.05 -2.68,0.09 -4.01,0.09 -15.19,0 -30.2,-3.47 -43.86,-10.12 -12.38,-6.65 -22.41,-16.98 -28.67,-29.55 -6.65,-13.47 -10.13,-28.33 -10.13,-43.36 0,-0.51 0.01,-1.06 0.01,-1.56 -0.01,-0.73 -0.03,-1.49 -0.03,-2.23 0,-15.6 3.86,-30.99 11.19,-44.76 7.43,-13.26 18.86,-23.87 32.65,-30.29 12.86,-5.32 26.66,-8.08 40.59,-8.08 1.51,0 3.05,0.04 4.56,0.1 1.76,-0.07 3.59,-0.12 5.37,-0.12 12,0 23.96,1.72 35.48,5.07 8.58,3.13 16.22,8.43 22.17,15.37 6.37,7.69 10.96,16.7 13.45,26.37l-49.13 8.72c-1.74,-5.78 -5.38,-10.81 -10.34,-14.26 -5.12,-3.24 -11.06,-4.98 -17.12,-4.98 -0.45,0 -0.91,0.01 -1.35,0.03 -0.46,-0.02 -0.95,-0.03 -1.42,-0.03 -9.73,0 -18.98,4.25 -25.33,11.63 -6.65,7.83 -9.97,20.02 -9.97,36.94 0,16.92 3.4,30.59 10.12,38.27 6.69,7.33 16.16,11.51 26.08,11.51 0.66,0 1.33,-0.02 1.99,-0.06 0.04,0 0.08,0 0.12,0 5.47,0 10.93,-0.85 16.13,-2.51 6.22,-2.12 12.21,-4.97 17.81,-8.43l0 -15.51 -34.06 0.01 0.22 -0.81zm110.82 -105.13l51.2 0 0 164.9 -51.05 0 0 -164.16 0 0 -0.15 -0.74zm87.99 0l47.58 0 62.06 91.24 0 -90.5 48.02 0 0 164.9 -48.02 0 -61.76 -90.5 0 90.5 -47.73 0 0 -164.9 0 0 -0.15 -0.74zm191.5 0l136.53 0 0 35.24 -85.26 -0 0 26.23 79.27 0 0 34.28 -79.27 0 0 32.51 87.99 -0 0 37.38 -139.04 0 0 -164.9 0 0 -0.22 -0.74zm166.38 0l136.53 0 0 35.24 -85.26 -0 0 26.23 79.27 0 0 34.28 -79.27 0 0 32.51 87.99 -0 0 37.38 -139.04 0 0 -164.9 0 0 -0.22 -0.74zm167.12 164.9l0 -164.16 84.96 0c1.47,-0.04 3.02,-0.09 4.51,-0.09 10.64,0 21.28,1.4 31.54,4.14 8.19,2.53 15.29,7.74 20.17,14.78 4.84,7.39 7.42,16.04 7.42,24.87 0,0.6 -0.01,1.21 -0.03,1.81 0.01,0.46 0.02,0.94 0.02,1.42 0,15.85 -8.46,30.49 -22.19,38.4 -5.58,3.07 -11.62,5.28 -17.88,6.5 4.69,1.39 9.19,3.47 13.29,6.13 3.02,2.56 5.76,5.47 8.13,8.64 2.79,3.16 5.27,6.61 7.38,10.27l24.68 47.8 -57.62 0 -27.19 -50.39c-2.17,-4.82 -5.32,-9.16 -9.24,-12.71 -3.57,-2.45 -7.8,-3.77 -12.14,-3.77 -0.11,0 -0.23,0 -0.35,0l-4.06 0.01 0 66.93 -51.2 0 -0.22 -0.59zm51.42 -97.37l21.5 0c4.53,-0.34 9.04,-1.09 13.44,-2.22 3.3,-0.65 6.25,-2.49 8.28,-5.17 2.06,-2.68 3.18,-5.96 3.18,-9.33 0,-0.06 -0,-0.13 -0,-0.2 0.03,-0.35 0.04,-0.71 0.04,-1.07 0,-4.3 -1.88,-8.39 -5.14,-11.2 -4.77,-2.9 -10.24,-4.45 -15.83,-4.45 -1.05,0 -2.12,0.06 -3.16,0.17l-22.16 0 0 33.54 0 0 -0.15 -0.07zm129.36 -66.49l51.05 0 0 164.9 -51.12 0 0 -165.2 0 0 0.07 0.3zm76.47 0l47.58 0 62.06 91.24 0 -91.54 48.02 0 0 164.9 -48.02 0 -61.76 -90.5 0 90.5 -47.95 0 0 -164.9 0 0 0.08 0.3zm262.93 105.13l0 -34.28 78.68 0 0 70.33c-12.25,8.82 -25.75,15.93 -39.97,20.98 -12.46,3.68 -25.44,5.57 -38.44,5.57 -0.91,0 -1.88,-0.02 -2.78,-0.03 -1.31,0.05 -2.68,0.09 -4.01,0.09 -15.19,0 -30.2,-3.47 -43.86,-10.12 -12.38,-6.65 -22.41,-16.98 -28.67,-29.55 -6.71,-13.53 -10.21,-28.43 -10.21,-43.52 0,-0.63 0.01,-1.3 0.03,-1.92 -0.02,-0.73 -0.03,-1.48 -0.03,-2.23 0,-15.6 3.86,-30.99 11.19,-44.76 7.43,-13.26 18.86,-23.87 32.65,-30.28 12.86,-5.32 26.66,-8.08 40.59,-8.08 1.51,0 3.05,0.04 4.56,0.1 1.76,-0.07 3.59,-0.12 5.37,-0.12 12,0 23.96,1.72 35.48,5.07 8.58,3.13 16.22,8.43 22.17,15.36 6.37,7.69 10.96,16.7 13.45,26.37l-49.13 8.72c-1.74,-5.78 -5.38,-10.81 -10.34,-14.26 -5.12,-3.24 -11.06,-4.98 -17.12,-4.98 -0.45,0 -0.91,0.01 -1.35,0.03 -0.46,-0.02 -0.95,-0.03 -1.42,-0.03 -9.73,0 -18.98,4.25 -25.33,11.63 -6.65,7.83 -9.97,20.02 -9.97,36.94 0,16.92 3.4,30.59 10.12,38.27 6.69,7.34 16.16,11.51 26.08,11.51 0.66,0 1.33,-0.02 1.99,-0.06 0.04,0 0.08,0 0.12,0 5.47,0 10.93,-0.85 16.13,-2.51 6.22,-2.13 12.21,-4.97 17.81,-8.43l0 -15.51 -34.06 0.01 0.3 -0.3z"></path>
  <path class="fil0" d="M1498.94 384.55l68.7 0c-7.97,35.32 -28.51,66.59 -57.7,87.98 -28.37,21.13 -64.1,31.7 -107.2,31.7 -52.21,0 -92.99,-16.97 -122.34,-50.9 -29.55,-32.95 -44.33,-80.14 -44.33,-141.55 0,-58.66 14.18,-104.49 42.55,-137.49 29.55,-33.89 70.33,-50.85 122.34,-50.9 55.02,0 97.62,16.5 127.81,49.5 29.55,33.89 44.33,81.07 44.33,141.55l0 14.78c0.03,0.5 0.05,1.01 0.05,1.52 0,2.76 -0.49,5.5 -1.45,8.08l-237.67 0c0.96,28.37 7.39,49.5 20.61,63.24 13.22,13.74 29.55,22.17 53.64,22.17 0.8,0.02 1.63,0.04 2.44,0.04 13.1,0 25.99,-3.32 37.46,-9.64 2.79,-1.03 5.32,-2.68 7.39,-4.8l7.39 -7.39c2.4,-4.45 5.92,-8.22 10.19,-10.93 6.8,-4.57 14.82,-7.01 23.02,-7.01 0.8,0 1.6,0.03 2.39,0.07l-0 0 0.37 0zm-164.9 -107.2l140.37 0c-1.77,-24.75 -8.2,-43.07 -19.21,-55.04 -12.37,-12.37 -29.16,-19.34 -46.66,-19.34 -1.36,0 -2.74,0.05 -4.09,0.13 -0.81,-0.02 -1.64,-0.05 -2.46,-0.05 -17.59,0 -34.5,6.92 -47.03,19.25 -13.23,12.93 -19.95,31.25 -20.91,55.04z"></path>
  <path class="fil0" d="M1127.4 475.64l0 -23.64c-14.77,24.32 -38.76,41.68 -66.49,48.09 -10.07,2.31 -20.39,3.5 -30.73,3.5 -17.99,0 -35.84,-3.56 -52.45,-10.44 -29.47,-12.46 -54.42,-33.85 -71.22,-61.09 -19.7,-29.55 -29.55,-68.73 -29.55,-117.54 0,-56.89 13.05,-102.94 39.16,-138.15 26.1,-35.22 67.97,-52.85 125.6,-52.9 0.35,-0 0.73,-0 1.08,-0 33.11,0 65.9,7.42 95.77,21.64 11.23,-10.46 25.95,-16.42 41.3,-16.69l41 0 0 356.32c0,64.02 -18.81,107.76 -56.44,131.21 -36.32,22.9 -78.42,35.09 -121.38,35.09 -0.3,0 -0.64,0 -0.94,0 -84.23,0 -136.42,-39.4 -156.57,-118.2l100.25 0c13.95,22.58 38.63,36.35 65.19,36.35 4.65,0 9.3,-0.43 13.86,-1.26 16.34,-4.04 30.87,-13.5 41.16,-26.82 12.41,-14.78 19.5,-36.94 21.35,-65.9l-0.01 0.01 0.08 0.44zm0 -157.36l0 -5.17c-0.06,-9.33 -0.87,-18.64 -2.29,-27.84 -2.85,-20.31 -10.64,-39.66 -22.6,-56.3 -11.33,-15.61 -29.48,-24.85 -48.77,-24.85 -1.15,0 -2.32,0.04 -3.46,0.1 -31.18,0 -52.26,11.45 -63.25,34.35 -10.89,23.52 -16.58,49.19 -16.58,75.12 0,1.05 0.02,2.16 0.02,3.18 0,63.25 18.35,98.27 55.04,105.07 36.94,6.94 63.68,-1.55 81.27,-25.34 9.81,-14.11 15.99,-30.44 17.96,-47.5 1.7,-10.26 2.68,-20.7 2.8,-31.1l-0.14 0.29z"></path>
  <path class="fil0" d="M787.26 485.62c-17.03,7.99 -35.37,13.15 -54.08,15.14 -18.89,2.04 -38.07,3.28 -57.11,3.42 -0.95,-0.01 -1.93,0.01 -2.9,0.01 -30.02,0 -59.32,-9.43 -83.7,-26.92 -24.62,-17.83 -36.93,-47.38 -36.93,-88.66 0,-38.47 11.23,-65.95 33.69,-82.45 35.68,-26.15 81.27,-33.54 124.34,-38.49 40.34,-5.54 60.51,-17.36 60.51,-35.76 0.02,-0.39 0.03,-0.77 0.03,-1.16 0,-12.58 -9,-23.35 -21.38,-25.59 -12.68,-3.88 -25.91,-6 -39.17,-6.21 -0.43,0.01 -0.88,-0.01 -1.33,-0.01 -11.23,0 -22.42,1.89 -33.02,5.55 -9.97,3.37 -18.05,10.86 -22.16,20.55l-92.06 0c3.16,-27.48 16.99,-52.7 38.5,-70.12 24.62,-20.98 59.88,-31.49 105.79,-31.54 51.37,0 89.84,8.72 115.4,26.15 24.91,16.25 39.95,44.01 39.95,73.76 0,1.04 -0.02,2.12 -0.05,3.15l0 125.15c-0,2.02 -0,3.99 -0,5.91l0 140.37 -39.16 0c-12.7,-0.5 -24.98,-4.93 -35.09,-12.64l-0 0 -0.08 0.37zm-14.77 -172.51c-17.14,7.87 -35.14,13.87 -53.56,17.8l-31.55 6.94c-13.2,2.86 -25.52,9.01 -35.76,17.81 -6.07,8.94 -9.42,19.48 -9.61,30.29 -0.03,0.73 -0.05,1.47 -0.05,2.21 0,11.46 4.45,22.49 12.39,30.74 9.13,7.21 20.43,11.14 32.06,11.14 1.23,0 2.47,-0.05 3.69,-0.13 1.44,0.07 2.94,0.12 4.4,0.12 20.86,0 40.94,-7.98 56.1,-22.29 14.78,-14.78 22.17,-34.72 22.17,-60.43l0 -34.2 -0.3 0z"></path>
  <path class="fil0" d="M552.4 497.29c-12.96,0.68 -26.16,1.1 -39.18,1.1 -19.67,0 -39.51,-0.85 -59.09,-2.47 -35.31,-2.73 -52.9,-25.19 -52.9,-67.31l0.02 -404.08 49.5 0c12.01,-0.01 23.49,4.98 31.7,13.74 8.78,8.48 13.74,20.17 13.74,32.37 0,0.19 -0.01,0.39 -0.01,0.58l0 61.84 61.02 0 0 65.38 -61.02 0 0 204.06c0,15.59 9.16,23.35 27.41,23.35l28.89 -0 0 71.44 -0.08 0z"></path>
  <path class="fil0" d="M271.14 132.47c0,-0.89 -0.66,-1.7 -1.03,-2.59l-0 0 -0.52 -1.26 0 0 -0.66 -1.48 0 0 -0.66 -1.26 0 0c-2.04,-3.97 -4.53,-7.73 -7.39,-11.16 -2.72,-3.35 -5.83,-6.42 -9.23,-9.09 -8,-5.98 -17.17,-10.26 -26.89,-12.56 -11.82,-2.86 -23.96,-4.3 -36.12,-4.3 -0.79,0 -1.59,0.02 -2.37,0.02 -53.05,0 -79.58,17.88 -79.58,53.64 0.01,0.15 0,0.32 0,0.48 0,5.8 1.35,11.54 3.92,16.73 2.93,5.57 7.04,10.45 12.04,14.26 6.58,5 13.88,9.1 21.58,12.12 10.44,4.17 21.24,7.6 32.21,10.11l0 0.01c14.78,3.5 28.76,6.9 41.96,10.2 13.2,3.3 25.22,6.48 36.05,9.53 11.03,3.05 21.62,6.35 31.77,9.9 10.15,3.55 19.83,7.32 29.03,11.3l0 0c10.41,4.28 20.34,9.69 29.56,16.1 4.68,3.24 9.08,6.95 13.08,11.01 4.04,4.1 7.72,8.61 10.93,13.37 3.39,5.06 6.34,10.41 8.79,15.96 2.67,6.05 4.95,12.32 6.73,18.69 2.02,7.24 3.46,14.69 4.29,22.16 0.9,8.35 1.4,16.79 1.4,25.18 0,0.36 0,0.77 0,1.13 0,0.21 0,0.46 0,0.68 0,10.7 -1.21,21.41 -3.61,31.83 -2.33,9.97 -6,19.62 -10.87,28.65 -4.72,8.75 -10.42,17.01 -16.92,24.53 -6.61,7.55 -14.08,14.44 -22.16,20.39 -8.3,6.18 -17.2,11.59 -26.52,16.1 -9.87,4.76 -20.16,8.72 -30.67,11.76 -11,3.28 -22.26,5.76 -33.61,7.39 -11.67,1.59 -23.51,2.44 -35.3,2.44 0,0 -0.09,0 -0.09,0 -1.66,-0.01 -3.48,0.03 -5.17,0.03 -28.51,0 -57.06,-3.38 -84.77,-9.99 -23.43,-5.53 -45.59,-15.8 -64.99,-30.09 -17.26,-13.12 -31.04,-30.33 -40.11,-50.02 -9.63,-21.72 -14.84,-45.25 -15.23,-69l0 -3.33 101.22 0.01 0 3.18c0.06,10.62 2.61,21.1 7.39,30.58 4.9,9.29 11.95,17.31 20.54,23.35 9.39,6.68 19.91,11.69 31.02,14.77 11.95,3.33 24.37,5.03 36.78,5.03 0.52,0 1.07,-0.02 1.57,-0.02 0.74,0 1.56,0.02 2.32,0.02 12.65,0 25.32,-1.41 37.65,-4.15 10.12,-2.2 19.78,-6.33 28.37,-12.12 7.05,-4.77 12.86,-11.19 16.92,-18.68 3.69,-7.26 5.62,-15.31 5.62,-23.46 0,-0.28 -0.01,-0.58 -0.01,-0.86l-0.01 0c0,-0.08 0,-0.16 0,-0.23 0,-3.37 -0.23,-6.78 -0.67,-10.11 -0.41,-3.2 -1.09,-6.37 -1.99,-9.46 -0.87,-2.89 -2.14,-5.65 -3.77,-8.2 -1.79,-2.7 -3.9,-5.19 -6.28,-7.38 -2.75,-2.6 -5.79,-4.92 -9.01,-6.88 -3.86,-2.36 -7.94,-4.45 -12.12,-6.2 -5.15,-2.13 -10.44,-4 -15.81,-5.55 -6.01,-1.77 -12.71,-3.47 -20.1,-5.09l0 0c-17.83,-3.74 -34.45,-7.51 -49.87,-11.3 -15.42,-3.79 -29.65,-7.63 -42.7,-11.52 -23.07,-6.43 -45.12,-16.44 -65.17,-29.54 -8.13,-5.61 -15.6,-12.19 -22.15,-19.59 -6.3,-7.06 -11.61,-14.98 -15.74,-23.49 -4.32,-9.09 -7.43,-18.76 -9.22,-28.67 -2.01,-11.08 -3.04,-22.37 -3.04,-33.63 0,-0.51 0,-1.01 0,-1.51 0.01,-0.04 0.01,-0.09 0.01,-0.13 0,-9.52 0.93,-19.05 2.73,-28.39 1.76,-9.15 4.49,-18.17 8.06,-26.76 3.34,-8.52 7.7,-16.64 12.93,-24.15 5.64,-7.66 12.19,-14.68 19.43,-20.84 7.66,-6.51 16.02,-12.26 24.83,-17.06 9.43,-5.18 19.38,-9.54 29.55,-13.01 11.51,-3.82 23.36,-6.61 35.38,-8.27 13.1,-1.79 26.4,-2.74 39.62,-2.74 0.46,0 0.99,0 1.44,0 0.42,0 0.8,0 1.18,0 13.32,0 26.74,0.97 39.93,2.82 12.29,1.71 24.51,4.5 36.34,8.27 10.97,3.48 21.66,7.99 31.84,13.37 9.61,5.11 18.71,11.18 27.11,18.11 16.34,13.41 29.48,30.39 38.41,49.56 4.57,9.8 8.13,20.07 10.57,30.6 2.52,10.98 4.05,22.26 4.44,33.54l0 3.33 -50.99 0c-1.38,0.06 -2.8,0.09 -4.2,0.09 -9.56,0 -19.1,-1.46 -28.23,-4.3 -10.25,-3.85 -18.05,-12.37 -20.98,-22.91l-0 0.01z"></path>
  <path class="fil1" d="M4783.77 217.07c-2.84,-5.14 -6.72,-9.65 -11.38,-13.23 -10.14,-7.68 -25.64,-11.52 -46.47,-11.52 -1.63,-0.07 -3.29,-0.11 -4.93,-0.11 -13.69,0 -27.32,2.56 -40.07,7.49 -9.23,3.82 -15.25,12.82 -15.25,22.81 0,0.45 0.01,0.91 0.04,1.35 0.15,10.17 6.05,19.39 15.22,23.79 14,7.46 28.93,13.21 44.33,17.06l80.31 22.68c18.42,4.83 36.09,12.31 52.38,22.16 12.31,7.53 22.13,18.54 28.21,31.63 5.71,14.59 8.67,30.17 8.67,45.86 0,1.67 -0.04,3.39 -0.11,5.05 0.01,0.25 0.01,0.55 0.01,0.8 0,31.79 -15.2,61.71 -40.86,80.46 -27.24,21.58 -67.62,32.37 -121.16,32.37 -0.99,-0.02 -2.02,0.01 -3.03,0.01 -23.06,0 -46.11,-3.04 -68.35,-8.97 -19.57,-5.14 -38.12,-13.83 -54.58,-25.62 -29.91,-21.35 -47.77,-55.82 -47.95,-92.57l99.59 0c-0.03,0.62 -0.04,1.26 -0.04,1.89 0,15.37 7.7,29.73 20.51,38.22 14.65,9.27 31.65,14.2 48.99,14.2 1.37,0 2.77,-0.03 4.13,-0.09 0.95,0 1.96,0.03 2.93,0.03 15.17,0 30.22,-2.93 44.27,-8.6 11.6,-3.59 19.57,-14.24 19.73,-26.38 0.06,-0.75 0.08,-1.52 0.08,-2.27 0,-10.87 -5.62,-20.96 -14.86,-26.69 -13.85,-7.48 -28.85,-12.75 -44.33,-15.59 -29.27,-6.05 -58.19,-14.44 -86.19,-24.88 -18.41,-6.72 -35.65,-16.4 -50.94,-28.59 -11.1,-8.96 -19.6,-20.8 -24.52,-34.21 -4.19,-12.9 -6.36,-26.42 -6.36,-39.99 0,-0.53 0.02,-1.1 0.02,-1.62 -0.01,-0.11 -0.01,-0.23 -0.01,-0.34 0,-13.47 2.93,-26.81 8.58,-39.03 6.17,-12.98 15.5,-24.24 27.1,-32.73 14.57,-10.45 30.97,-18.17 48.32,-22.68 21.94,-5.69 44.63,-8.62 67.33,-8.62 1.83,0 3.72,0.03 5.51,0.06 52.51,-0 90.9,10.66 115.19,31.98 24.28,21.33 37.65,50.88 40.11,88.66l-61.24 0c-0.18,-0 -0.35,0 -0.53,0 -16.27,0 -31.19,-9.1 -38.63,-23.57l0.01 0 0.22 -0.66z"></path>
  <path class="fil0" d="M3259.56 919.66l0 -33.91 122.71 0 0 107.05c-17.54,14.25 -37.24,25.71 -58.3,33.9 -19.66,7.48 -40.53,11.31 -61.58,11.31 0,0 -0.04,0 -0.04,0 -0.73,-0.01 -1.55,0.01 -2.31,0.01 -26.18,0 -52.01,-6.27 -75.26,-18.26 -22.68,-11.61 -41.15,-30.12 -52.68,-52.83 -11.7,-23.2 -17.82,-48.92 -17.82,-74.93 0,-0.77 0.02,-1.59 0.02,-2.34 -0.01,-0.39 -0.01,-0.85 -0.01,-1.24 0,-26.89 6.07,-53.46 17.74,-77.66 10.55,-23.22 28.41,-42.36 50.82,-54.53 22.65,-11.67 47.81,-17.77 73.28,-17.77 1.06,0 2.15,0.02 3.18,0.04 0.72,-0.01 1.49,-0.03 2.23,-0.03 18.66,0 37.2,3.48 54.59,10.21 15.53,5.72 29.31,15.51 39.82,28.3 10.59,14.06 18.18,30.26 22.16,47.42l-34.58 9.53c-3.28,-12.45 -8.78,-24.26 -16.18,-34.79 -7.3,-9.05 -16.86,-16.04 -27.71,-20.24 -12.07,-4.88 -25.01,-7.4 -38.04,-7.4 -0.61,0 -1.25,0.01 -1.85,0.01 -0.86,-0.01 -1.75,-0.02 -2.61,-0.02 -14.65,0 -29.2,2.74 -42.83,8.08 -11.74,4.63 -22.34,11.83 -30.96,21.06 -7.64,8.45 -13.83,18.15 -18.24,28.66 -7.33,18.08 -11.09,37.44 -11.09,56.95 0,0.44 0,0.91 0,1.35 -0.04,1.52 -0.07,3.09 -0.07,4.62 0,20.79 4.61,41.36 13.44,60.17 8.34,16.82 22.02,30.45 38.87,38.72 16.67,8.36 35.1,12.71 53.75,12.71 0.1,0 0.22,0 0.32,0 16.68,-0.02 33.21,-3.33 48.61,-9.68 13.06,-4.71 25.25,-11.67 35.98,-20.46l0 -53.93 -85.4 0 0 -0.07zm179.82 113.63l0 -289.61 128.4 0c2.45,-0.11 4.98,-0.17 7.44,-0.17 17.51,0 34.98,2.71 51.66,7.99 13.51,5.28 24.87,14.98 32.21,27.48 7.86,12.93 12.05,27.81 12.05,42.95 0,0.25 0,0.53 0,0.79 0.01,0.56 0.02,1.15 0.02,1.73 0,18.6 -7.15,36.51 -19.96,49.99 -13.3,14.09 -33.83,23.05 -61.61,26.89 8.37,3.78 16.17,8.78 23.13,14.78 12.13,11.43 22.9,24.4 31.85,38.48l50.39 78.83 -48.25 0.01 -38.34 -60.29c-11.23,-17.36 -20.46,-30.66 -27.71,-39.9 -5.38,-7.46 -11.95,-14.02 -19.43,-19.36 -5.39,-3.4 -11.32,-5.9 -17.51,-7.38 -5.99,-0.9 -12.1,-1.38 -18.16,-1.38 -1.06,0 -2.14,0.03 -3.19,0.04l-44.33 0 0 128.62 -38.34 0 -0.3 -0.52zm38.34 -161.8l82.45 0c1.5,0.03 3.04,0.08 4.56,0.08 12.38,0 24.7,-1.87 36.51,-5.55 9.11,-3.2 16.91,-9.34 22.17,-17.44 4.82,-7.55 7.4,-16.33 7.4,-25.3 0,-0.21 -0.01,-0.43 -0.01,-0.63 0.01,-0.42 0.02,-0.85 0.02,-1.28 0,-12.46 -5.4,-24.32 -14.8,-32.49 -9.85,-8.81 -25.56,-13.22 -47.13,-13.22l-91.39 0 0 96.04 0 -0 0.22 -0.22zm241.66 20.69c0,-48.07 12.9,-85.7 38.71,-112.89 24.86,-26.1 59.36,-40.87 95.4,-40.87 1.53,0 3.12,0.03 4.64,0.08 0.62,0.01 1.28,-0.01 1.93,-0.01 24.74,0 49.07,6.63 70.39,19.16 21.27,12.59 38.39,31.22 49.13,53.48 11.1,23.29 16.87,48.77 16.87,74.58 0,1.04 -0.02,2.14 -0.02,3.15 0,1.03 0.02,2.13 0.02,3.19 0,26.24 -6.08,52.15 -17.76,75.64 -11.01,22.28 -28.62,40.69 -50.39,52.68 -21.26,11.71 -45.19,17.88 -69.47,17.88 -0.28,0 -0.58,0 -0.86,0 -0.8,0 -1.63,0.02 -2.45,0.02 -24.91,0 -49.38,-6.84 -70.68,-19.75 -21.2,-12.81 -38.2,-31.59 -48.84,-53.94 -10.92,-22.32 -16.63,-46.9 -16.63,-71.77 0,-0.18 0,-0.38 0,-0.56l0.01 0.01 0 -0.08zm39.53 0.59c0,34.92 9.38,62.43 28.15,82.52 18.52,19.34 44.17,30.29 70.96,30.29 26.79,0 52.44,-10.95 70.96,-30.29 18.62,-20.29 27.96,-49.08 28.01,-86.36 0.01,-1.03 0.03,-2.14 0.03,-3.19 0,-20.1 -4.1,-40.03 -12.01,-58.5 -7.3,-16.8 -19.48,-31.09 -34.94,-40.93 -15.23,-9.64 -32.93,-14.78 -50.96,-14.78 -0.24,0 -0.51,0 -0.76,0 -0.51,0 -1.05,-0.01 -1.56,-0.01 -25.63,0 -50.25,10.06 -68.55,28.01 -19.7,18.62 -29.55,49.73 -29.55,93.31l0 0 0.22 -0.07zm476.97 -149.16l38.34 0 0 167.41c0.08,2.36 0.13,4.77 0.13,7.16 0,21.1 -3.4,42.12 -10.03,62.13 -6.92,17.5 -19.48,32.2 -35.68,41.74 -18.83,10.65 -40.14,16.25 -61.78,16.25 -1.96,0 -3.96,-0.04 -5.9,-0.14 -1.79,0.07 -3.66,0.11 -5.47,0.11 -21.15,0 -42.04,-4.86 -61.01,-14.15 -16.73,-8.73 -29.84,-23.14 -36.94,-40.63 -7.43,-20.77 -11.24,-42.74 -11.24,-64.8 0,-2.56 0.07,-5.22 0.16,-7.75l-0.01 -167.25 38.34 0 0 167.19c-0.13,2.52 -0.18,5.1 -0.18,7.65 0,16.24 2.45,32.39 7.2,47.89 4.52,11.74 13.06,21.51 24.08,27.57 12.04,6.37 25.49,9.72 39.12,9.72 0.9,0 1.81,-0.02 2.7,-0.04 28.17,0 48.26,-6.4 60.28,-19.2 12.02,-12.81 18,-37.43 17.95,-73.88l0 -166.89 0 0 -0.07 -0.07zm102.18 289.68l0 -289.61 109.27 0c1.92,-0.04 3.9,-0.07 5.85,-0.07 12.86,0 25.78,0.94 38.48,2.79 12.79,1.79 25.04,6.43 35.83,13.53 10,7.14 18.02,16.77 23.2,27.92 5.75,12.43 8.74,25.99 8.74,39.7 0,22.96 -8.37,45.15 -23.52,62.4 -15.71,16.99 -44.03,25.52 -84.96,25.57l-74.54 0 0 117.77 -38.34 0zm38.34 -151.97l74.91 0c24.63,0 42.21,-4.6 52.75,-13.82 9.99,-9.33 15.67,-22.41 15.67,-36.08 0,-0.95 -0.03,-1.92 -0.08,-2.86 0.01,-0.51 0.03,-1.04 0.03,-1.55 0,-10.57 -3.21,-20.91 -9.18,-29.63 -5.79,-8.39 -14.39,-14.45 -24.23,-17.07 -9.78,-1.78 -19.78,-2.69 -29.75,-2.69 -2,0 -4.02,0.04 -6,0.1l-73.88 0.01 0 103.43 -0.22 0.15z"></path>
  <path class="fil2" d="M1647.96 498.25c0,0 89.4,-147.76 514.72,-225.48 -181.97,-11.38 -512.13,57.7 -618.96,225.48l104.24 0z"></path>
  <path class="fil0" d="M2693.72 20.33l50.02 0c26.06,0.08 47.17,21.22 47.21,47.28l0 29.18 -97.22 0 0 -76.46z"></path>
  <path class="fil0" d="M4854.03 96.79l0 -57.48 -20.54 0 0 -11.75 55.11 0 0 11.75 -20.46 0 0 57.48 -13.96 0 -0.15 0zm43.29 0l0 -69.22 20.84 -0 12.56 47.21 12.41 -47.21 20.98 0 0 69.22 -13 0 0 -54.52 -13.74 54.52 -13.3 0 -13.67 -54.52 0 54.52 -13 0 -0.08 0z"></path>
  <path class="fil0" d="M2693.72 20.33l50.02 0c26.06,0.08 47.17,21.22 47.21,47.28l0 29.18 -97.22 0 0 -76.46z"></path>
  <path class="fil0" d="M4854.03 96.79l0 -57.48 -20.54 0 0 -11.75 55.11 0 0 11.75 -20.46 0 0 57.48 -13.96 0 -0.15 0zm43.29 0l0 -69.22 20.84 -0 12.56 47.21 12.41 -47.21 20.98 0 0 69.22 -13 0 0 -54.52 -13.74 54.52 -13.3 0 -13.67 -54.52 0 54.52 -13 0 -0.08 0z"></path>
  <path class="fil0" d="M2693.72 20.33l50.02 0c26.06,0.08 47.17,21.22 47.21,47.28l0 29.18 -97.22 0 0 -76.46z"></path>
  <path class="fil0" d="M4854.03 96.79l0 -57.48 -20.54 0 0 -11.75 55.11 0 0 11.75 -20.46 0 0 57.48 -13.96 0 -0.15 0zm43.29 0l0 -69.22 20.84 -0 12.56 47.21 12.41 -47.21 20.98 0 0 69.22 -13 0 0 -54.52 -13.74 54.52 -13.3 0 -13.67 -54.52 0 54.52 -13 0 -0.08 0z"></path>
  <path class="fil0" d="M2693.72 20.33l50.02 0c26.06,0.08 47.17,21.22 47.21,47.28l0 29.18 -97.22 0 0 -76.46z"></path>
  <path class="fil0" d="M4854.03 96.79l0 -57.48 -20.54 0 0 -11.75 55.11 0 0 11.75 -20.46 0 0 57.48 -13.96 0 -0.15 0zm43.29 0l0 -69.22 20.84 -0 12.56 47.21 12.41 -47.21 20.98 0 0 69.22 -13 0 0 -54.52 -13.74 54.52 -13.3 0 -13.67 -54.52 0 54.52 -13 0 -0.08 0z"></path>
 </g>
</svg>
